<?xml version="1.0" encoding="utf-8"?>
<!-- Generator: Adobe Illustrator 16.0.4, SVG Export Plug-In . SVG Version: 6.00 Build 0)  -->
<!DOCTYPE svg PUBLIC "-//W3C//DTD SVG 1.1//EN" "http://www.w3.org/Graphics/SVG/1.1/DTD/svg11.dtd">
<svg version="1.1" id="Layer_1" xmlns="http://www.w3.org/2000/svg" xmlns:xlink="http://www.w3.org/1999/xlink" x="0px" y="0px"
	 width="12px" height="12px" viewBox="0 0 12 12" enable-background="new 0 0 12 12" xml:space="preserve">
<path fill="#999999" d="M11.657,8.49l-3.74-7.113C7.287,0.179,6.458,0,6.02,0S4.752,0.179,4.122,1.377L0.383,8.49
	c-0.452,0.859-0.479,1.734-0.073,2.4c0.406,0.668,1.198,1.049,2.172,1.049h7.075c0.973,0,1.767-0.381,2.172-1.049
	C12.135,10.225,12.107,9.35,11.657,8.49z M10.543,10.18c-0.148,0.243-0.509,0.385-0.986,0.385H2.483
	c-0.479,0-0.838-0.142-0.987-0.385C1.347,9.934,1.389,9.551,1.61,9.129l3.74-7.113c0.207-0.394,0.464-0.638,0.67-0.638
	c0.207,0,0.463,0.244,0.671,0.638l3.738,7.113C10.65,9.551,10.691,9.934,10.543,10.18z M6.02,8.268c-0.382,0-0.692,0.31-0.692,0.688
	c0,0.382,0.31,0.69,0.692,0.69s0.691-0.31,0.691-0.69C6.711,8.576,6.402,8.268,6.02,8.268z M6.02,4.057
	c-0.637,0-1.153,0.515-1.153,1.149c0,0.134,0.024,0.262,0.067,0.382H4.933C5.398,6.9,5.398,6.9,5.584,7.425h0.002
	C5.65,7.604,5.819,7.73,6.02,7.73s0.37-0.127,0.434-0.307h0.001C6.641,6.9,6.641,6.9,7.105,5.588l0,0
	c0.043-0.12,0.067-0.248,0.067-0.382C7.174,4.572,6.656,4.057,6.02,4.057z"/>
</svg>
